<svg width="28" height="28" viewBox="0 0 28 28" fill="none" xmlns="http://www.w3.org/2000/svg">
<path d="M21.7727 19.1663L20.9404 18.6119C20.7622 18.8795 20.7234 19.2164 20.8363 19.5174L21.7727 19.1663ZM19.1701 21.7699L19.5212 20.8336C19.22 20.7207 18.883 20.7595 18.6154 20.9379L19.1701 21.7699ZM23.3346 23.3316L22.9835 24.268C23.3507 24.4057 23.7645 24.316 24.0418 24.0387C24.319 23.7615 24.4087 23.3477 24.271 22.9805L23.3346 23.3316ZM22.3325 13.9989C22.3325 15.7066 21.8199 17.2915 20.9404 18.6119L22.6049 19.7207C23.6964 18.0821 24.3325 16.1133 24.3325 13.9989H22.3325ZM13.9996 5.66602C18.6018 5.66602 22.3325 9.39678 22.3325 13.9989H24.3325C24.3325 8.29221 19.7064 3.66602 13.9996 3.66602V5.66602ZM5.66675 13.9989C5.66675 9.39678 9.39751 5.66602 13.9996 5.66602V3.66602C8.29294 3.66602 3.66675 8.29221 3.66675 13.9989H5.66675ZM13.9996 22.3318C9.39751 22.3318 5.66675 18.601 5.66675 13.9989H3.66675C3.66675 19.7056 8.29294 24.3318 13.9996 24.3318V22.3318ZM18.6154 20.9379C17.2944 21.8185 15.7085 22.3318 13.9996 22.3318V24.3318C16.1154 24.3318 18.0855 23.6948 19.7248 22.602L18.6154 20.9379ZM18.8189 22.7062L22.9835 24.268L23.6858 22.3953L19.5212 20.8336L18.8189 22.7062ZM24.271 22.9805L22.709 18.8152L20.8363 19.5174L22.3983 23.6828L24.271 22.9805Z" fill="black"/>
<ellipse cx="9.33341" cy="14.0007" rx="1.16667" ry="1.16667" fill="black"/>
<circle cx="13.9999" cy="14.0007" r="1.16667" fill="black"/>
<circle cx="18.6667" cy="14.0007" r="1.16667" fill="black"/>
</svg>
