<svg width="28" height="28" viewBox="0 0 28 28" fill="none" xmlns="http://www.w3.org/2000/svg">
<path d="M18.7233 16.8365H17.7296L17.3774 16.4969C18.6528 15.0177 19.3537 13.1292 19.3522 11.1761C19.3522 9.55902 18.8727 7.97826 17.9743 6.63371C17.0759 5.28915 15.7989 4.2412 14.305 3.62237C12.811 3.00354 11.167 2.84163 9.58102 3.15711C7.99502 3.47258 6.53818 4.25128 5.39473 5.39473C4.25128 6.53818 3.47258 7.99502 3.15711 9.58102C2.84163 11.167 3.00354 12.811 3.62237 14.305C4.2412 15.7989 5.28915 17.0759 6.63371 17.9743C7.97826 18.8727 9.55902 19.3522 11.1761 19.3522C13.2013 19.3522 15.0629 18.6101 16.4969 17.3774L16.8365 17.7296V18.7233L23.1258 25L25 23.1258L18.7233 16.8365ZM11.1761 16.8365C8.04403 16.8365 5.51573 14.3082 5.51573 11.1761C5.51573 8.04403 8.04403 5.51573 11.1761 5.51573C14.3082 5.51573 16.8365 8.04403 16.8365 11.1761C16.8365 14.3082 14.3082 16.8365 11.1761 16.8365Z" fill="black"/>
</svg>
