<svg width="28" height="28" viewBox="0 0 28 28" fill="none" xmlns="http://www.w3.org/2000/svg">
<path d="M22.9501 10.8582C23.0695 11.1641 22.9688 11.5052 22.7114 11.7232L21.0963 13.1086C21.1373 13.4005 21.1597 13.6994 21.1597 14.0018C21.1597 14.3042 21.1373 14.603 21.0963 14.8949L22.7114 16.2803C22.9688 16.4983 23.0695 16.8394 22.9501 17.1453C22.786 17.5638 22.5883 17.9646 22.3608 18.3514L22.1855 18.6363C21.9393 19.0231 21.6633 19.3887 21.3611 19.7333C21.1411 19.9865 20.7755 20.0709 20.4473 19.9725L18.3697 19.3501C17.8699 19.7122 17.3178 20.0147 16.7285 20.2432L16.2622 22.251C16.1876 22.571 15.9265 22.8242 15.5834 22.8769C15.0686 22.9578 14.539 23 13.9981 23C13.4573 23 12.9276 22.9578 12.4129 22.8769C12.0697 22.8242 11.8086 22.571 11.734 22.251L11.2678 20.2432C10.6784 20.0147 10.1264 19.7122 9.62659 19.3501L7.55272 19.976C7.22448 20.0744 6.85894 19.9865 6.63887 19.7369C6.33674 19.3923 6.06072 19.0266 5.81455 18.6398L5.63924 18.355C5.41171 17.9682 5.21402 17.5673 5.0499 17.1489C4.93054 16.8429 5.03125 16.5019 5.28862 16.2838L6.9037 14.8984C6.86267 14.603 6.84029 14.3042 6.84029 14.0018C6.84029 13.6994 6.86267 13.4005 6.9037 13.1086L5.28862 11.7232C5.03125 11.5052 4.93054 11.1641 5.0499 10.8582C5.21402 10.4397 5.41171 10.0389 5.63924 9.65208L5.81455 9.36726C6.06072 8.98047 6.33674 8.61477 6.63887 8.27017C6.85894 8.017 7.22448 7.9326 7.55272 8.03106L9.63032 8.65345C10.1301 8.29127 10.6822 7.98887 11.2715 7.7603L11.7378 5.75249C11.8124 5.43251 12.0735 5.17933 12.4166 5.12659C12.9314 5.0422 13.461 5 14.0019 5C14.5427 5 15.0724 5.0422 15.5871 5.12307C15.9303 5.17582 16.1914 5.42899 16.266 5.74897L16.7322 7.75679C17.3216 7.98535 17.8736 8.28775 18.3734 8.64993L20.451 8.02754C20.7793 7.92909 21.1448 8.017 21.3649 8.26665C21.667 8.61125 21.943 8.97695 22.1892 9.36374L22.3645 9.64856C22.592 10.0354 22.7897 10.4362 22.9538 10.8547L22.9501 10.8582ZM14.0019 16.8148C15.6505 16.8148 16.9859 15.556 16.9859 14.0018C16.9859 12.4475 15.6505 11.1887 14.0019 11.1887C12.3532 11.1887 11.0179 12.4475 11.0179 14.0018C11.0179 15.556 12.3532 16.8148 14.0019 16.8148Z" stroke="black" stroke-width="2" stroke-linejoin="round"/>
</svg>
