<svg width="17" height="9" viewBox="0 0 17 9" fill="none" xmlns="http://www.w3.org/2000/svg">
<path d="M1.95126 8.84082C1.57101 8.84082 1.28948 8.72748 1.10666 8.50079C0.923852 8.2741 0.832445 7.97063 0.832445 7.59038V2.47894C0.832445 1.9232 0.982352 1.5137 1.28216 1.25044C1.58929 0.987195 1.95491 0.85557 2.37904 0.85557C2.78123 0.85557 3.12126 0.987195 3.39913 1.25044C3.68432 1.5137 3.89273 1.93051 4.02435 2.50088L4.87991 6.21929H5.1651L6.02066 2.50088C6.15229 1.93051 6.3607 1.5137 6.64588 1.25044C6.93838 0.987195 7.28573 0.85557 7.68791 0.85557C8.11204 0.85557 8.47401 0.987195 8.77382 1.25044C9.08095 1.5137 9.23451 1.9232 9.23451 2.47894V7.59038C9.23451 7.97063 9.13945 8.2741 8.94932 8.50079C8.76651 8.72748 8.48498 8.84082 8.10473 8.84082C7.7391 8.84082 7.45757 8.72748 7.26013 8.50079C7.0627 8.2741 6.96398 7.97063 6.96398 7.59038V4.63979C6.96398 4.56666 6.95301 4.50085 6.93107 4.44235C6.91645 4.37654 6.86891 4.34363 6.78848 4.34363C6.72266 4.34363 6.67513 4.37654 6.64588 4.44235C6.61663 4.50085 6.5947 4.56666 6.58007 4.63979L6.16326 7.40391C6.11207 7.70373 6.04991 7.96332 5.97679 8.1827C5.91098 8.39476 5.80495 8.55929 5.6587 8.67629C5.51245 8.78598 5.30038 8.84082 5.02251 8.84082C4.75195 8.84082 4.53988 8.78598 4.38632 8.67629C4.24007 8.55929 4.13038 8.39476 4.05726 8.1827C3.99145 7.96332 3.9366 7.70373 3.89273 7.40391L3.46495 4.63979C3.45763 4.56666 3.43935 4.50085 3.4101 4.44235C3.38085 4.37654 3.32966 4.34363 3.25654 4.34363C3.18341 4.34363 3.13588 4.37654 3.11395 4.44235C3.09201 4.50085 3.08104 4.56666 3.08104 4.63979V7.59038C3.08104 7.97063 2.98232 8.2741 2.78488 8.50079C2.59476 8.72748 2.31688 8.84082 1.95126 8.84082ZM12.6137 8.81888C12.2554 8.81888 11.9117 8.78598 11.5827 8.72016C11.2609 8.65435 10.9757 8.53004 10.7271 8.34723C10.4858 8.1571 10.292 7.88654 10.1458 7.53554C10.0068 7.17723 9.93736 6.70923 9.93736 6.13154C9.93736 5.61235 10.0068 5.16629 10.1458 4.79335C10.2847 4.42041 10.4492 4.12426 10.6394 3.90488C10.8368 3.68551 11.016 3.55023 11.1768 3.49904L11.122 3.29063H10.9355C10.5991 3.29063 10.3322 3.1846 10.1348 2.97254C9.94468 2.75316 9.84596 2.45701 9.83865 2.08407C9.83133 1.71845 9.9264 1.42595 10.1238 1.20657C10.3286 0.987195 10.5991 0.877508 10.9355 0.877508H14.8733C15.6557 0.877508 16.047 1.24313 16.047 1.97438C16.047 2.30344 15.9519 2.5667 15.7618 2.76413C15.5716 2.96157 15.2755 3.06029 14.8733 3.06029H12.6028C12.3322 3.06029 12.1969 3.21751 12.1969 3.53195V4.3546C12.5626 4.27416 12.9428 4.1791 13.3377 4.06941C13.7399 3.95973 14.1201 3.90488 14.4784 3.90488C14.8221 3.90488 15.0781 3.98166 15.2462 4.13523C15.4217 4.28148 15.5095 4.48257 15.5095 4.73851C15.5095 5.00176 15.4217 5.21016 15.2462 5.36373C15.0781 5.50998 14.8221 5.58676 14.4784 5.59407C14.1201 5.60138 13.7399 5.5502 13.3377 5.44051C12.9355 5.33082 12.5516 5.23576 12.186 5.15532V6.59223C12.186 6.73116 12.2225 6.82988 12.2956 6.88838C12.3761 6.93957 12.5004 6.91763 12.6686 6.82257C13.0342 6.61051 13.3925 6.44232 13.7435 6.31801C14.0945 6.18638 14.4382 6.12057 14.7746 6.12057C15.2499 6.12057 15.6082 6.24488 15.8495 6.49351C16.0981 6.74213 16.2225 7.06754 16.2225 7.46973C16.2225 7.90116 16.0908 8.23388 15.8276 8.46788C15.5716 8.70188 15.1548 8.81888 14.5771 8.81888H12.6137Z" fill="#6D6D6D"/>
</svg>
