<svg width="24" height="24" viewBox="0 0 24 24" fill="none" xmlns="http://www.w3.org/2000/svg">
<path d="M13.8771 22.5228C13.7515 22.3577 13.674 22.1599 13.6534 21.952C13.6329 21.7441 13.6702 21.5345 13.761 21.3472C13.9985 20.877 14.0916 20.3394 14.0309 19.81C13.9814 19.4322 13.8589 19.0682 13.6706 18.7389C13.4858 18.4132 13.2373 18.1296 12.9406 17.9057C11.9318 17.133 11.2238 16.0215 10.9422 14.768C8.63754 17.8465 9.52136 19.5941 10.6251 21.1341C10.7541 21.3148 10.822 21.5333 10.8186 21.7567C10.8152 21.9802 10.7407 22.1964 10.6062 22.3729C10.4688 22.5514 10.2844 22.6863 10.0746 22.7621C9.86716 22.8361 9.64306 22.8471 9.42961 22.7937C7.93857 22.4224 6.53524 21.7157 5.58395 20.5896C5.04509 19.9638 4.62998 19.2378 4.36144 18.4515C4.08992 17.6584 3.96947 16.8198 4.00656 15.9807C4.00656 15.9807 3.82709 12.5941 7.83467 9.27632C7.83467 9.27632 12.5709 5.18164 10.9274 2.15395C10.8667 2.00505 10.8486 1.84165 10.8754 1.68273C10.9021 1.5238 10.9726 1.37587 11.0785 1.25609C11.1816 1.13891 11.3174 1.05672 11.4677 1.02058C11.618 0.984442 11.7756 0.996096 11.9192 1.05397L12.1162 1.13372C13.9001 2.2828 15.2944 3.96277 16.1103 5.94613C16.8929 7.88897 16.8875 10.1535 16.3585 12.1706C16.7971 11.7691 17.1627 11.2893 17.4394 10.7503L17.4785 10.6623C17.7457 10.0064 18.5863 10.2154 18.9021 10.6444C19.0181 10.8328 21.9948 15.241 20.3958 18.9603C19.8119 20.0877 18.9579 21.0464 17.913 21.7473C17.0372 22.3407 16.0579 22.7575 15.0281 22.9752C14.8153 23.0212 14.594 23.003 14.3912 22.9229C14.1866 22.8416 14.0085 22.7035 13.8771 22.5242V22.5228ZM11.4941 11.8516C11.62 11.7841 11.7662 11.7672 11.9036 11.8044C12.0411 11.8416 12.1599 11.9301 12.2363 12.0524C12.2902 12.1349 12.324 12.2256 12.3375 12.3246L12.3982 12.8045C12.4252 13.5071 12.4171 14.2413 12.6856 14.9165C12.9636 15.6094 13.3954 16.2227 13.9432 16.7012C14.649 17.1744 15.1953 17.8568 15.5084 18.6564C15.8053 19.4319 15.8458 20.2926 15.6218 21.0942C16.3074 20.8747 16.9445 20.5212 17.4974 20.0534L17.6364 19.9379C18.0898 19.557 18.4635 19.0813 18.7334 18.5395C19.0046 17.9991 19.1679 17.4052 19.2111 16.7947C19.2988 15.3853 18.8278 13.9705 18.0951 12.7083C17.7605 13.2032 17.299 13.5869 16.766 13.8137C16.4327 13.9581 16.0792 14.0475 15.7189 14.075C15.5126 14.0879 15.307 14.0402 15.1266 13.9375C14.9435 13.8316 14.7933 13.6753 14.6934 13.4865C14.6111 13.3341 14.5641 13.1646 14.5559 12.9909C14.5477 12.8172 14.5786 12.6438 14.6462 12.4841C15.2021 11.1477 15.3749 9.66543 15.1387 8.22584C14.8595 6.57868 14.0853 5.0605 12.9231 3.88092C12.7126 6.91274 9.66169 9.73556 9.03559 10.3433C8.93811 10.436 8.83729 10.525 8.73334 10.61C5.45981 13.3119 5.6838 15.7731 5.6838 15.8817C5.62051 16.8593 5.83557 17.8347 6.30316 18.6908C6.79567 19.5776 7.50408 20.3091 8.35417 20.8082C7.37319 18.611 7.37319 15.9738 10.9935 12.1926L11.4955 11.8489L11.4941 11.8516Z" fill="#FF5965"/>
</svg>
