<svg width="24" height="24" viewBox="0 0 24 24" fill="none" xmlns="http://www.w3.org/2000/svg">
<path d="M2.82947 11.6383C2.33003 11.1318 1.93432 10.529 1.66541 9.8648C1.3965 9.20064 1.25976 8.48849 1.26316 7.76984C1.26316 6.31637 1.82876 4.92243 2.83553 3.89466C3.84231 2.8669 5.20778 2.28951 6.63158 2.28951C8.62737 2.28951 10.3705 3.39847 11.2926 5.04902H12.7074C13.1761 4.20964 13.8544 3.51206 14.6732 3.02733C15.492 2.54259 16.4219 2.28801 17.3684 2.28951C18.7922 2.28951 20.1577 2.8669 21.1645 3.89466C22.1712 4.92243 22.7368 6.31637 22.7368 7.76984C22.7368 9.27855 22.1053 10.6712 21.1705 11.6383L12 20.9871L2.82947 11.6383ZM22.0547 12.5538C23.2547 11.3159 24 9.6396 24 7.76984C24 5.97437 23.3013 4.25244 22.0577 2.98286C20.814 1.71327 19.1272 1.00002 17.3684 1.00002C15.1579 1.00002 13.2 2.09609 12 3.79822C11.3875 2.92974 10.581 2.22287 9.64734 1.73623C8.71371 1.24959 7.67987 0.997209 6.63158 1.00002C4.87277 1.00002 3.18601 1.71327 1.94234 2.98286C0.698682 4.25244 0 5.97437 0 7.76984C0 9.6396 0.745263 11.3159 1.94526 12.5538L12 22.8182L22.0547 12.5538Z" fill="#111111"/>
</svg>
