<svg width="24" height="24" viewBox="0 0 24 24" fill="none" xmlns="http://www.w3.org/2000/svg">
<path d="M22 11.1C22 10.6226 21.8084 10.1648 21.4675 9.82721C21.1265 9.48964 20.664 9.3 20.1818 9.3H14.4364L15.3091 5.187C15.3273 5.097 15.3364 4.998 15.3364 4.899C15.3364 4.53 15.1818 4.188 14.9364 3.945L13.9727 3L7.99091 8.922C7.65455 9.255 7.45455 9.705 7.45455 10.2V19.2C7.45455 19.6774 7.6461 20.1352 7.98708 20.4728C8.32805 20.8104 8.79052 21 9.27273 21H17.4545C18.2091 21 18.8545 20.55 19.1273 19.902L21.8727 13.557C21.9545 13.35 22 13.134 22 12.9V11.1ZM2 21H5.63636V10.2H2V21Z" fill="#B0B0B0"/>
</svg>
