<svg width="100" height="100" viewBox="0 0 100 100" fill="none" xmlns="http://www.w3.org/2000/svg">
<path d="M13.6667 9.25048C13.3806 8.94345 13.0356 8.69719 12.6522 8.52639C12.2689 8.35559 11.8551 8.26375 11.4355 8.25635C11.0159 8.24894 10.5991 8.32613 10.21 8.4833C9.82088 8.64047 9.46741 8.87441 9.17066 9.17115C8.87392 9.4679 8.63998 9.82137 8.48281 10.2105C8.32564 10.5996 8.24845 11.0164 8.25586 11.436C8.26326 11.8556 8.3551 12.2694 8.5259 12.6527C8.6967 13.036 8.94296 13.3811 9.24999 13.6671L18.4083 22.8338C11.8952 30.3848 8.31869 40.0286 8.33332 50.0005C8.32467 56.6586 9.91812 63.2211 12.9792 69.1338L8.52916 85.063C8.28094 85.9524 8.27365 86.8918 8.50802 87.785C8.74239 88.6781 9.21 89.4929 9.86295 90.1459C10.5159 90.7988 11.3307 91.2664 12.2238 91.5008C13.117 91.7352 14.0564 91.7279 14.9458 91.4796L30.8875 87.0338C36.7951 90.0873 43.3499 91.6763 50 91.6671C60.3792 91.6671 69.875 87.8713 77.1667 81.5921L86.3333 90.7505C86.9257 91.3025 87.7093 91.603 88.5188 91.5887C89.3284 91.5744 90.1009 91.2465 90.6734 90.6739C91.246 90.1013 91.5739 89.3289 91.5882 88.5193C91.6025 87.7097 91.302 86.9262 90.75 86.3338L13.6667 9.25048ZM72.7375 77.1588C66.3679 82.5043 58.3154 85.429 50 85.4171C43.973 85.4277 38.0439 83.8927 32.7792 80.9588L31.6542 80.3338L15.0458 84.963L19.6833 68.363L19.0542 67.238C16.1132 61.9695 14.5738 56.0343 14.5833 50.0005C14.5833 41.3463 17.6875 33.4171 22.8458 27.263L35.3625 39.7838C34.6778 40.0413 34.1052 40.5308 33.7443 41.1671C33.3834 41.8033 33.2571 42.546 33.3875 43.2658C33.5179 43.9855 33.8966 44.6368 34.4578 45.106C35.0189 45.5753 35.7268 45.8328 36.4583 45.8338H41.4167L49.75 54.1671H36.4583L36.0333 54.1963C35.2489 54.3042 34.5348 54.7059 34.0351 55.3201C33.5355 55.9343 33.2876 56.7152 33.3415 57.5051C33.3955 58.2951 33.7473 59.0351 34.3259 59.5756C34.9044 60.1161 35.6666 60.4169 36.4583 60.4171H55.2L55.625 60.388L55.9167 60.3338L72.7375 77.1588ZM63.5625 39.5838H52.8417L59.0917 45.8338H63.5583L63.9833 45.8046C64.7673 45.6968 65.4812 45.2955 65.9809 44.6817C66.4805 44.068 66.7287 43.2875 66.6753 42.4979C66.6219 41.7083 66.2708 40.9683 65.6931 40.4275C65.1153 39.8866 64.3539 39.5851 63.5625 39.5838Z" fill="#B0B0B0"/>
<path d="M85.4165 50.0007C85.4165 56.3757 83.7332 62.359 80.7832 67.5257L85.3415 72.084C89.4878 65.4656 91.6803 57.8106 91.6665 50.0007C91.6665 26.9882 73.0123 8.33405 49.9998 8.33405C42.1899 8.32026 34.5349 10.5128 27.9165 14.659L32.4748 19.2174C37.8622 16.1497 43.9605 14.5499 50.16 14.5779C56.3594 14.606 62.443 16.2608 67.8024 19.3771C73.1618 22.4934 77.6093 26.9619 80.7004 32.3359C83.7914 37.7099 85.4176 43.8012 85.4165 50.0007Z" fill="#B0B0B0"/>
</svg>
