<svg width="24" height="24" viewBox="0 0 24 24" fill="none" xmlns="http://www.w3.org/2000/svg">
<path d="M12.0001 10.3977C11.5006 9.88701 3.56978 9.82077 3.30086 9.15107C3.03195 8.48138 4.46193 3.37651 4.46533 2.65187C4.46533 1.18629 1.82884 4.77365 2.83561 3.73732C3.84239 2.701 0.0379035 9.15107 1.4617 9.15107C3.45749 9.15107 1.91351 9.50344 2.83561 11.1677L12.0001 10.3977C12.4689 9.55133 12.6813 14.4156 13.5001 13.9269C14.3188 13.4381 14.9168 9.48978 15.8632 9.49129C17.287 9.49129 14.9933 11.378 16.0001 12.4144C17.0069 13.4507 22.7369 9.49129 22.7369 7.6448C22.7369 9.16607 12.9348 9.42253 12.0001 10.3977ZM22.0548 12.4687C23.2548 11.2204 24.0001 9.53014 24.0001 7.6448C24.0001 5.83437 23.3014 4.09809 22.0577 2.81792C20.8141 1.53775 19.1273 0.818562 17.3685 0.818562C15.158 0.818562 13.2001 1.92376 12.0001 3.64007C11.3876 2.76436 10.5811 2.0516 9.64742 1.5609C8.71379 1.07021 7.67995 0.815724 6.63166 0.818562C4.87286 0.818562 3.18609 1.53775 1.94243 2.81792C0.698765 4.09809 8.27312e-05 5.83437 8.27312e-05 7.6448C8.27312e-05 9.53014 0.745346 11.2204 1.94535 12.4687L12.0001 22.8185L22.0548 12.4687Z" fill="#FA0000"/>
</svg>
