<svg width="24" height="24" viewBox="0 0 24 24" fill="none" xmlns="http://www.w3.org/2000/svg">
<mask id="mask0_486_4701" style="mask-type:luminance" maskUnits="userSpaceOnUse" x="0" y="0" width="24" height="24">
<path d="M24 0H0V24H24V0Z" fill="white"/>
</mask>
<g mask="url(#mask0_486_4701)">
<path d="M21.8 12.2271C21.8 11.518 21.7364 10.8362 21.6182 10.1816H12.2V14.0498H17.5818C17.35 15.2998 16.6455 16.3589 15.5864 17.068V19.5771H18.8182C20.7091 17.8362 21.8 15.2725 21.8 12.2271Z" fill="#4285F4"/>
<path d="M12.2001 22.0004C14.9001 22.0004 17.1637 21.1049 18.8182 19.5777L15.5864 17.0686C14.691 17.6686 13.5455 18.0231 12.2001 18.0231C9.59547 18.0231 7.39097 16.264 6.60457 13.9004H3.26367V16.4913C4.90917 19.7595 8.29097 22.0004 12.2001 22.0004Z" fill="#34A853"/>
<path d="M6.60445 13.9007C6.40445 13.3007 6.29085 12.6598 6.29085 12.0007C6.29085 11.3416 6.40445 10.7007 6.60445 10.1007V7.50977H3.26355C2.58635 8.85977 2.19995 10.3871 2.19995 12.0007C2.19995 13.6143 2.58635 15.1416 3.26355 16.4916L6.60445 13.9007Z" fill="#FBBC04"/>
<path d="M12.2001 5.9773C13.6682 5.9773 14.9864 6.4818 16.0228 7.4727L18.891 4.6045C17.1592 2.9909 14.8955 2 12.2001 2C8.29097 2 4.90917 4.2409 3.26367 7.5091L6.60457 10.1C7.39097 7.7364 9.59547 5.9773 12.2001 5.9773Z" fill="#E94235"/>
</g>
</svg>
