<svg width="24" height="24" viewBox="0 0 24 24" fill="none" xmlns="http://www.w3.org/2000/svg">
<path d="M14.2234 9.77545L10.8894 13.1094M21.2115 2.03057C21.3169 1.99418 21.4305 1.98819 21.5392 2.01329C21.6479 2.03839 21.7473 2.09356 21.8262 2.1725C21.905 2.25144 21.96 2.35096 21.985 2.4597C22.0099 2.56843 22.0037 2.68199 21.9672 2.78739L15.3837 21.6023C15.3443 21.7147 15.272 21.8128 15.1762 21.8836C15.0804 21.9545 14.9655 21.995 14.8464 21.9998C14.7274 22.0046 14.6096 21.9735 14.5084 21.9105C14.4072 21.8476 14.3273 21.7556 14.279 21.6467L10.7016 13.5984C10.6414 13.4646 10.5343 13.3575 10.4004 13.2973L2.35217 9.71877C2.24358 9.67029 2.15203 9.59037 2.08934 9.48932C2.02665 9.38827 1.9957 9.27075 2.00048 9.15193C2.00527 9.03311 2.04557 8.91846 2.11619 8.82279C2.18681 8.72711 2.28449 8.65481 2.39662 8.61522L21.2115 2.03057Z" stroke="#454545" stroke-width="1.8" stroke-linecap="round" stroke-linejoin="round"/>
</svg>
