<svg width="24" height="24" viewBox="0 0 24 24" fill="none" xmlns="http://www.w3.org/2000/svg">
<path d="M20.9501 8.85818C21.0695 9.16409 20.9688 9.50518 20.7114 9.72319L19.0963 11.1086C19.1373 11.4005 19.1597 11.6994 19.1597 12.0018C19.1597 12.3042 19.1373 12.603 19.0963 12.8949L20.7114 14.2803C20.9688 14.4983 21.0695 14.8394 20.9501 15.1453C20.786 15.5638 20.5883 15.9646 20.3608 16.3514L20.1855 16.6363C19.9393 17.0231 19.6633 17.3887 19.3611 17.7333C19.1411 17.9865 18.7755 18.0709 18.4473 17.9725L16.3697 17.3501C15.8699 17.7122 15.3178 18.0147 14.7285 18.2432L14.2622 20.251C14.1876 20.571 13.9265 20.8242 13.5834 20.8769C13.0686 20.9578 12.539 21 11.9981 21C11.4573 21 10.9276 20.9578 10.4129 20.8769C10.0697 20.8242 9.80863 20.571 9.73403 20.251L9.26778 18.2432C8.67845 18.0147 8.12641 17.7122 7.62659 17.3501L5.55272 17.976C5.22448 18.0744 4.85894 17.9865 4.63887 17.7369C4.33674 17.3923 4.06072 17.0266 3.81455 16.6398L3.63924 16.355C3.41171 15.9682 3.21402 15.5673 3.0499 15.1489C2.93054 14.8429 3.03125 14.5019 3.28862 14.2838L4.9037 12.8984C4.86267 12.603 4.84029 12.3042 4.84029 12.0018C4.84029 11.6994 4.86267 11.4005 4.9037 11.1086L3.28862 9.72319C3.03125 9.50518 2.93054 9.16409 3.0499 8.85818C3.21402 8.43973 3.41171 8.03888 3.63924 7.65208L3.81455 7.36726C4.06072 6.98047 4.33674 6.61477 4.63887 6.27017C4.85894 6.017 5.22448 5.9326 5.55272 6.03106L7.63032 6.65345C8.13014 6.29127 8.68218 5.98887 9.27152 5.7603L9.73776 3.75249C9.81236 3.43251 10.0735 3.17933 10.4166 3.12659C10.9314 3.0422 11.461 3 12.0019 3C12.5427 3 13.0724 3.0422 13.5871 3.12307C13.9303 3.17582 14.1914 3.42899 14.266 3.74897L14.7322 5.75679C15.3216 5.98535 15.8736 6.28775 16.3734 6.64993L18.451 6.02754C18.7793 5.92909 19.1448 6.017 19.3649 6.26665C19.667 6.61125 19.943 6.97695 20.1892 7.36374L20.3645 7.64856C20.592 8.03536 20.7897 8.43622 20.9538 8.85466L20.9501 8.85818ZM12.0019 14.8148C13.6505 14.8148 14.9859 13.556 14.9859 12.0018C14.9859 10.4475 13.6505 9.18871 12.0019 9.18871C10.3532 9.18871 9.01788 10.4475 9.01788 12.0018C9.01788 13.556 10.3532 14.8148 12.0019 14.8148Z" stroke="black" stroke-width="2" stroke-linejoin="round"/>
</svg>
