<svg width="30" height="9" viewBox="0 0 30 9" fill="none" xmlns="http://www.w3.org/2000/svg">
<path d="M1.27255 8.84082C0.892297 8.84082 0.610766 8.72748 0.427953 8.50079C0.245141 8.2741 0.153734 7.97063 0.153734 7.59038V2.47894C0.153734 1.9232 0.303641 1.5137 0.603453 1.25044C0.910578 0.987195 1.2762 0.85557 1.70033 0.85557C2.10252 0.85557 2.44255 0.987195 2.72042 1.25044C3.00561 1.5137 3.21402 1.93051 3.34564 2.50088L4.2012 6.21929H4.48639L5.34195 2.50088C5.47358 1.93051 5.68198 1.5137 5.96717 1.25044C6.25967 0.987195 6.60702 0.85557 7.0092 0.85557C7.43333 0.85557 7.7953 0.987195 8.09511 1.25044C8.40223 1.5137 8.5558 1.9232 8.5558 2.47894V7.59038C8.5558 7.97063 8.46073 8.2741 8.27061 8.50079C8.0878 8.72748 7.80627 8.84082 7.42602 8.84082C7.06039 8.84082 6.77886 8.72748 6.58142 8.50079C6.38398 8.2741 6.28527 7.97063 6.28527 7.59038V4.63979C6.28527 4.56666 6.2743 4.50085 6.25236 4.44235C6.23773 4.37654 6.1902 4.34363 6.10977 4.34363C6.04395 4.34363 5.99642 4.37654 5.96717 4.44235C5.93792 4.50085 5.91598 4.56666 5.90136 4.63979L5.48455 7.40391C5.43336 7.70373 5.3712 7.96332 5.29808 8.1827C5.23227 8.39476 5.12623 8.55929 4.97998 8.67629C4.83373 8.78598 4.62167 8.84082 4.3438 8.84082C4.07323 8.84082 3.86117 8.78598 3.70761 8.67629C3.56136 8.55929 3.45167 8.39476 3.37855 8.1827C3.31273 7.96332 3.25789 7.70373 3.21402 7.40391L2.78623 4.63979C2.77892 4.56666 2.76064 4.50085 2.73139 4.44235C2.70214 4.37654 2.65095 4.34363 2.57783 4.34363C2.5047 4.34363 2.45717 4.37654 2.43523 4.44235C2.4133 4.50085 2.40233 4.56666 2.40233 4.63979V7.59038C2.40233 7.97063 2.30361 8.2741 2.10617 8.50079C1.91605 8.72748 1.63817 8.84082 1.27255 8.84082ZM10.1471 8.84082C9.65719 8.7677 9.33909 8.54466 9.19284 8.17173C9.04659 7.79148 9.07584 7.31251 9.28059 6.73482L10.7285 2.62154C10.8601 2.24129 11.01 1.91588 11.1782 1.64532C11.3537 1.37476 11.5694 1.16635 11.8253 1.0201C12.0886 0.873851 12.414 0.800726 12.8016 0.800726C13.3866 0.800726 13.8253 0.961601 14.1178 1.28335C14.4176 1.6051 14.6662 2.05116 14.8637 2.62154L16.3006 6.73482C16.5053 7.31251 16.5419 7.79148 16.4103 8.17173C16.286 8.54466 15.9752 8.7677 15.4779 8.84082C15.0757 8.89201 14.7247 8.84448 14.4249 8.69823C14.1324 8.55198 13.9569 8.31432 13.8984 7.98526C13.8546 7.76588 13.8472 7.58307 13.8765 7.43682C13.9131 7.29057 13.946 7.17357 13.9752 7.08582C13.9972 7.0127 13.9972 6.94323 13.9752 6.87741C13.9606 6.80429 13.9057 6.76773 13.8107 6.76773H11.7705C11.6754 6.76773 11.6169 6.80429 11.595 6.87741C11.5804 6.94323 11.5877 7.0127 11.6169 7.08582C11.6462 7.17357 11.6754 7.29057 11.7047 7.43682C11.7339 7.58307 11.7303 7.76588 11.6937 7.98526C11.6352 8.31432 11.4634 8.55198 11.1782 8.69823C10.893 8.84448 10.5493 8.89201 10.1471 8.84082ZM13.6023 5.2321L13.0319 3.4442C13.0173 3.37107 12.9917 3.31623 12.9551 3.27966C12.9259 3.23579 12.8747 3.21385 12.8016 3.21385C12.7284 3.21385 12.6736 3.23579 12.637 3.27966C12.6078 3.31623 12.5822 3.37107 12.5602 3.4442L12.0008 5.2321H13.6023ZM16.5657 3.29063C16.2001 3.29063 15.9003 3.1846 15.6663 2.97254C15.4396 2.76048 15.3263 2.46798 15.3263 2.09504C15.3263 1.72941 15.4286 1.43691 15.6334 1.21754C15.8454 0.990851 16.1562 0.877508 16.5657 0.877508H21.2933C21.7028 0.877508 22.0099 0.990851 22.2146 1.21754C22.4267 1.43691 22.5327 1.72941 22.5327 2.09504C22.5327 2.46798 22.4157 2.76048 22.1817 2.97254C21.955 3.1846 21.6589 3.29063 21.2933 3.29063C21.0446 3.29063 20.8435 3.26504 20.69 3.21385C20.5437 3.15535 20.4231 3.08954 20.328 3.01641C20.2329 2.93598 20.1415 2.87016 20.0538 2.81898C19.966 2.76048 19.8564 2.73123 19.7247 2.73123L19.626 2.92866C19.6553 2.99448 19.7064 3.08954 19.7796 3.21385C19.8527 3.33085 19.9222 3.5027 19.988 3.72938C20.0538 3.94876 20.0867 4.24857 20.0867 4.62882V7.79879C20.0867 8.0986 19.9734 8.34723 19.7467 8.54466C19.5273 8.7421 19.2567 8.84082 18.935 8.84082C18.6059 8.84082 18.328 8.7421 18.1014 8.54466C17.882 8.34723 17.7723 8.0986 17.7723 7.79879V4.62882C17.7723 4.24857 17.8052 3.94876 17.871 3.72938C17.9368 3.5027 18.0063 3.33085 18.0794 3.21385C18.1599 3.08954 18.2147 2.99448 18.2439 2.92866L18.1343 2.73123C18.0026 2.73123 17.8929 2.76048 17.8052 2.81898C17.7174 2.87016 17.626 2.93598 17.531 3.01641C17.4359 3.08954 17.3153 3.15535 17.169 3.21385C17.0228 3.26504 16.8217 3.29063 16.5657 3.29063ZM25.6567 8.81888C25.2984 8.81888 24.9547 8.78598 24.6256 8.72016C24.3039 8.65435 24.0187 8.53004 23.7701 8.34723C23.5287 8.1571 23.335 7.88654 23.1887 7.53554C23.0498 7.17723 22.9803 6.70923 22.9803 6.13154C22.9803 5.61235 23.0498 5.16629 23.1887 4.79335C23.3276 4.42041 23.4922 4.12426 23.6823 3.90488C23.8797 3.68551 24.0589 3.55023 24.2198 3.49904L24.1649 3.29063H23.9785C23.6421 3.29063 23.3752 3.1846 23.1777 2.97254C22.9876 2.75316 22.8889 2.45701 22.8816 2.08407C22.8743 1.71845 22.9693 1.42595 23.1668 1.20657C23.3715 0.987195 23.6421 0.877508 23.9785 0.877508H27.9162C28.6987 0.877508 29.0899 1.24313 29.0899 1.97438C29.0899 2.30344 28.9948 2.5667 28.8047 2.76413C28.6146 2.96157 28.3184 3.06029 27.9162 3.06029H25.6457C25.3751 3.06029 25.2399 3.21751 25.2399 3.53195V4.3546C25.6055 4.27416 25.9857 4.1791 26.3806 4.06941C26.7828 3.95973 27.1631 3.90488 27.5214 3.90488C27.8651 3.90488 28.121 3.98166 28.2892 4.13523C28.4647 4.28148 28.5524 4.48257 28.5524 4.73851C28.5524 5.00176 28.4647 5.21016 28.2892 5.36373C28.121 5.50998 27.8651 5.58676 27.5214 5.59407C27.1631 5.60138 26.7828 5.5502 26.3806 5.44051C25.9784 5.33082 25.5945 5.23576 25.2289 5.15532V6.59223C25.2289 6.73116 25.2655 6.82988 25.3386 6.88838C25.419 6.93957 25.5433 6.91763 25.7115 6.82257C26.0771 6.61051 26.4355 6.44232 26.7865 6.31801C27.1375 6.18638 27.4811 6.12057 27.8175 6.12057C28.2928 6.12057 28.6511 6.24488 28.8925 6.49351C29.1411 6.74213 29.2654 7.06754 29.2654 7.46973C29.2654 7.90116 29.1338 8.23388 28.8705 8.46788C28.6146 8.70188 28.1978 8.81888 27.6201 8.81888H25.6567Z" fill="#6D6D6D"/>
</svg>
