<svg width="147" height="58" viewBox="0 0 147 58" fill="none" xmlns="http://www.w3.org/2000/svg">
<path d="M3.8132 32.1699C2.86258 32.1699 2.15875 31.8866 1.70172 31.3198C1.24469 30.7531 1.01617 29.9945 1.01617 29.0438V16.2652C1.01617 14.8759 1.39094 13.8521 2.14047 13.194C2.90828 12.5359 3.82234 12.2068 4.88266 12.2068C5.88813 12.2068 6.7382 12.5359 7.43289 13.194C8.14586 13.8521 8.66688 14.8941 8.99594 16.3201L11.1348 25.6161H11.8478L13.9867 16.3201C14.3158 14.8941 14.8368 13.8521 15.5498 13.194C16.281 12.5359 17.1494 12.2068 18.1548 12.2068C19.2152 12.2068 20.1201 12.5359 20.8696 13.194C21.6374 13.8521 22.0213 14.8759 22.0213 16.2652V29.0438C22.0213 29.9945 21.7837 30.7531 21.3084 31.3198C20.8513 31.8866 20.1475 32.1699 19.1969 32.1699C18.2828 32.1699 17.579 31.8866 17.0854 31.3198C16.5918 30.7531 16.345 29.9945 16.345 29.0438V21.6673C16.345 21.4845 16.3176 21.32 16.2627 21.1737C16.2262 21.0092 16.1073 20.927 15.9063 20.927C15.7417 20.927 15.6229 21.0092 15.5498 21.1737C15.4766 21.32 15.4218 21.4845 15.3852 21.6673L14.3432 28.5777C14.2152 29.3272 14.0598 29.9762 13.877 30.5246C13.7125 31.0548 13.4474 31.4661 13.0818 31.7586C12.7162 32.0328 12.186 32.1699 11.4913 32.1699C10.8149 32.1699 10.2848 32.0328 9.90086 31.7586C9.53523 31.4661 9.26102 31.0548 9.0782 30.5246C8.91367 29.9762 8.77656 29.3272 8.66688 28.5777L7.59742 21.6673C7.57914 21.4845 7.53344 21.32 7.46031 21.1737C7.38719 21.0092 7.25922 20.927 7.07641 20.927C6.89359 20.927 6.77477 21.0092 6.71992 21.1737C6.66508 21.32 6.63766 21.4845 6.63766 21.6673V29.0438C6.63766 29.9945 6.39086 30.7531 5.89727 31.3198C5.42195 31.8866 4.72727 32.1699 3.8132 32.1699ZM25.7254 32.1699C24.5006 31.9871 23.7053 31.4295 23.3397 30.4972C22.9741 29.5466 23.0472 28.3491 23.5591 26.9049L27.1788 16.6217C27.5078 15.6711 27.8826 14.8576 28.3031 14.1812C28.7418 13.5048 29.2811 12.9837 29.921 12.6181C30.5791 12.2525 31.3926 12.0697 32.3615 12.0697C33.824 12.0697 34.9209 12.4719 35.6521 13.2762C36.4017 14.0806 37.0232 15.1958 37.5168 16.6217L41.1091 26.9049C41.621 28.3491 41.7124 29.5466 41.3833 30.4972C41.0725 31.4295 40.2956 31.9871 39.0525 32.1699C38.047 32.2979 37.1695 32.1791 36.42 31.8134C35.6887 31.4478 35.25 30.8537 35.1037 30.031C34.994 29.4826 34.9757 29.0255 35.0489 28.6599C35.1403 28.2943 35.2225 28.0018 35.2957 27.7824C35.3505 27.5996 35.3505 27.4259 35.2957 27.2614C35.2591 27.0786 35.122 26.9872 34.8843 26.9872H29.7839C29.5462 26.9872 29.4 27.0786 29.3451 27.2614C29.3085 27.4259 29.3268 27.5996 29.4 27.7824C29.4731 28.0018 29.5462 28.2943 29.6193 28.6599C29.6925 29.0255 29.6833 29.4826 29.5919 30.031C29.4457 30.8537 29.016 31.4478 28.3031 31.8134C27.5901 32.1791 26.7309 32.2979 25.7254 32.1699ZM34.3633 23.1481L32.9374 18.6784C32.9008 18.4955 32.8368 18.3584 32.7454 18.267C32.6723 18.1573 32.5443 18.1025 32.3615 18.1025C32.1787 18.1025 32.0416 18.1573 31.9502 18.267C31.8771 18.3584 31.8131 18.4955 31.7582 18.6784L30.3597 23.1481H34.3633ZM41.4977 18.2945C40.5837 18.2945 39.8341 18.0294 39.2491 17.4992C38.6824 16.9691 38.399 16.2378 38.399 15.3055C38.399 14.3914 38.655 13.6602 39.1669 13.1117C39.697 12.545 40.474 12.2616 41.4977 12.2616H53.3165C54.3403 12.2616 55.1081 12.545 55.62 13.1117C56.1501 13.6602 56.4152 14.3914 56.4152 15.3055C56.4152 16.2378 56.1227 16.9691 55.5377 17.4992C54.971 18.0294 54.2306 18.2945 53.3165 18.2945C52.695 18.2945 52.1922 18.2305 51.8083 18.1025C51.4427 17.9562 51.1411 17.7917 50.9034 17.6089C50.6658 17.4078 50.4372 17.2433 50.2179 17.1153C49.9985 16.9691 49.7243 16.8959 49.3952 16.8959L49.1484 17.3895C49.2215 17.5541 49.3495 17.7917 49.5323 18.1025C49.7151 18.395 49.8888 18.8246 50.0533 19.3913C50.2179 19.9398 50.3001 20.6893 50.3001 21.6399V29.5648C50.3001 30.3144 50.0168 30.9359 49.4501 31.4295C48.9016 31.9231 48.2252 32.1699 47.4208 32.1699C46.5982 32.1699 45.9035 31.9231 45.3368 31.4295C44.7883 30.9359 44.5141 30.3144 44.5141 29.5648V21.6399C44.5141 20.6893 44.5964 19.9398 44.7609 19.3913C44.9254 18.8246 45.0991 18.395 45.2819 18.1025C45.483 17.7917 45.6201 17.5541 45.6933 17.3895L45.419 16.8959C45.09 16.8959 44.8158 16.9691 44.5964 17.1153C44.377 17.2433 44.1485 17.4078 43.9108 17.6089C43.6732 17.7917 43.3715 17.9562 43.0059 18.1025C42.6403 18.2305 42.1376 18.2945 41.4977 18.2945ZM63.9509 32.1151C63.0551 32.1151 62.1959 32.0328 61.3732 31.8683C60.5688 31.7037 59.8559 31.393 59.2343 30.9359C58.631 30.4606 58.1466 29.7842 57.781 28.9067C57.4336 28.0109 57.2599 26.8409 57.2599 25.3967C57.2599 24.0987 57.4336 22.9836 57.781 22.0512C58.1283 21.1189 58.5396 20.3785 59.0149 19.8301C59.5085 19.2816 59.9564 18.9434 60.3586 18.8155L60.2215 18.2945H59.7553C58.9144 18.2945 58.2471 18.0294 57.7535 17.4992C57.2782 16.9508 57.0314 16.2104 57.0131 15.278C56.9949 14.364 57.2325 13.6327 57.7261 13.0843C58.238 12.5359 58.9144 12.2616 59.7553 12.2616H69.5998C71.5559 12.2616 72.5339 13.1757 72.5339 15.0038C72.5339 15.8265 72.2963 16.4846 71.821 16.9782C71.3456 17.4718 70.6053 17.7186 69.5998 17.7186H63.9235C63.247 17.7186 62.9088 18.1116 62.9088 18.8977V20.9544C63.8229 20.7533 64.7735 20.5156 65.7607 20.2414C66.7662 19.9672 67.7168 19.8301 68.6126 19.8301C69.4718 19.8301 70.1117 20.022 70.5321 20.4059C70.9709 20.7716 71.1903 21.2743 71.1903 21.9141C71.1903 22.5723 70.9709 23.0933 70.5321 23.4772C70.1117 23.8428 69.4718 24.0348 68.6126 24.053C67.7168 24.0713 66.7662 23.9434 65.7607 23.6691C64.7553 23.3949 63.7955 23.1573 62.8814 22.9562V26.5484C62.8814 26.8958 62.9728 27.1426 63.1556 27.2888C63.3567 27.4168 63.6675 27.362 64.088 27.1243C65.002 26.5941 65.8978 26.1737 66.7753 25.8629C67.6528 25.5338 68.512 25.3693 69.353 25.3693C70.5413 25.3693 71.437 25.6801 72.0403 26.3016C72.6619 26.9232 72.9727 27.7367 72.9727 28.7422C72.9727 29.8208 72.6436 30.6526 71.9855 31.2376C71.3456 31.8226 70.3036 32.1151 68.8594 32.1151H63.9509ZM76.6268 32.1699C75.6762 32.1699 74.9724 31.8866 74.5154 31.3198C74.0583 30.7531 73.8298 29.9945 73.8298 29.0438V16.2652C73.8298 14.8759 74.2046 13.8521 74.9541 13.194C75.7219 12.5359 76.636 12.2068 77.6963 12.2068C78.7018 12.2068 79.5518 12.5359 80.2465 13.194C80.9595 13.8521 81.4805 14.8941 81.8096 16.3201L83.9485 25.6161H84.6615L86.8004 16.3201C87.1294 14.8941 87.6504 13.8521 88.3634 13.194C89.0947 12.5359 89.963 12.2068 90.9685 12.2068C92.0288 12.2068 92.9337 12.5359 93.6833 13.194C94.4511 13.8521 94.835 14.8759 94.835 16.2652V29.0438C94.835 29.9945 94.5973 30.7531 94.122 31.3198C93.665 31.8866 92.9611 32.1699 92.0105 32.1699C91.0965 32.1699 90.3926 31.8866 89.899 31.3198C89.4054 30.7531 89.1586 29.9945 89.1586 29.0438V21.6673C89.1586 21.4845 89.1312 21.32 89.0764 21.1737C89.0398 21.0092 88.921 20.927 88.7199 20.927C88.5554 20.927 88.4365 21.0092 88.3634 21.1737C88.2903 21.32 88.2354 21.4845 88.1989 21.6673L87.1568 28.5777C87.0289 29.3272 86.8735 29.9762 86.6907 30.5246C86.5261 31.0548 86.2611 31.4661 85.8954 31.7586C85.5298 32.0328 84.9997 32.1699 84.305 32.1699C83.6286 32.1699 83.0984 32.0328 82.7145 31.7586C82.3489 31.4661 82.0747 31.0548 81.8918 30.5246C81.7273 29.9762 81.5902 29.3272 81.4805 28.5777L80.4111 21.6673C80.3928 21.4845 80.3471 21.32 80.274 21.1737C80.2008 21.0092 80.0729 20.927 79.8901 20.927C79.7072 20.927 79.5884 21.0092 79.5336 21.1737C79.4787 21.32 79.4513 21.4845 79.4513 21.6673V29.0438C79.4513 29.9945 79.2045 30.7531 78.7109 31.3198C78.2356 31.8866 77.5409 32.1699 76.6268 32.1699ZM98.5391 32.1699C97.3142 31.9871 96.519 31.4295 96.1534 30.4972C95.7877 29.5466 95.8609 28.3491 96.3727 26.9049L99.9924 16.6217C100.321 15.6711 100.696 14.8576 101.117 14.1812C101.555 13.5048 102.095 12.9837 102.735 12.6181C103.393 12.2525 104.206 12.0697 105.175 12.0697C106.638 12.0697 107.735 12.4719 108.466 13.2762C109.215 14.0806 109.837 15.1958 110.33 16.6217L113.923 26.9049C114.435 28.3491 114.526 29.5466 114.197 30.4972C113.886 31.4295 113.109 31.9871 111.866 32.1699C110.861 32.2979 109.983 32.1791 109.234 31.8134C108.502 31.4478 108.064 30.8537 107.917 30.031C107.808 29.4826 107.789 29.0255 107.863 28.6599C107.954 28.2943 108.036 28.0018 108.109 27.7824C108.164 27.5996 108.164 27.4259 108.109 27.2614C108.073 27.0786 107.936 26.9872 107.698 26.9872H102.598C102.36 26.9872 102.214 27.0786 102.159 27.2614C102.122 27.4259 102.14 27.5996 102.214 27.7824C102.287 28.0018 102.36 28.2943 102.433 28.6599C102.506 29.0255 102.497 29.4826 102.406 30.031C102.259 30.8537 101.83 31.4478 101.117 31.8134C100.404 32.1791 99.5445 32.2979 98.5391 32.1699ZM107.177 23.1481L105.751 18.6784C105.714 18.4955 105.65 18.3584 105.559 18.267C105.486 18.1573 105.358 18.1025 105.175 18.1025C104.992 18.1025 104.855 18.1573 104.764 18.267C104.691 18.3584 104.627 18.4955 104.572 18.6784L103.173 23.1481H107.177ZM114.311 18.2945C113.397 18.2945 112.648 18.0294 112.063 17.4992C111.496 16.9691 111.213 16.2378 111.213 15.3055C111.213 14.3914 111.469 13.6602 111.981 13.1117C112.511 12.545 113.288 12.2616 114.311 12.2616H126.13C127.154 12.2616 127.922 12.545 128.434 13.1117C128.964 13.6602 129.229 14.3914 129.229 15.3055C129.229 16.2378 128.936 16.9691 128.351 17.4992C127.785 18.0294 127.044 18.2945 126.13 18.2945C125.509 18.2945 125.006 18.2305 124.622 18.1025C124.256 17.9562 123.955 17.7917 123.717 17.6089C123.479 17.4078 123.251 17.2433 123.032 17.1153C122.812 16.9691 122.538 16.8959 122.209 16.8959L121.962 17.3895C122.035 17.5541 122.163 17.7917 122.346 18.1025C122.529 18.395 122.702 18.8246 122.867 19.3913C123.032 19.9398 123.114 20.6893 123.114 21.6399V29.5648C123.114 30.3144 122.83 30.9359 122.264 31.4295C121.715 31.9231 121.039 32.1699 120.234 32.1699C119.412 32.1699 118.717 31.9231 118.15 31.4295C117.602 30.9359 117.328 30.3144 117.328 29.5648V21.6399C117.328 20.6893 117.41 19.9398 117.575 19.3913C117.739 18.8246 117.913 18.395 118.096 18.1025C118.297 17.7917 118.434 17.5541 118.507 17.3895L118.233 16.8959C117.904 16.8959 117.629 16.9691 117.41 17.1153C117.191 17.2433 116.962 17.4078 116.724 17.6089C116.487 17.7917 116.185 17.9562 115.82 18.1025C115.454 18.2305 114.951 18.2945 114.311 18.2945ZM136.765 32.1151C135.869 32.1151 135.01 32.0328 134.187 31.8683C133.382 31.7037 132.67 31.393 132.048 30.9359C131.445 30.4606 130.96 29.7842 130.595 28.9067C130.247 28.0109 130.074 26.8409 130.074 25.3967C130.074 24.0987 130.247 22.9836 130.595 22.0512C130.942 21.1189 131.353 20.3785 131.829 19.8301C132.322 19.2816 132.77 18.9434 133.172 18.8155L133.035 18.2945H132.569C131.728 18.2945 131.061 18.0294 130.567 17.4992C130.092 16.9508 129.845 16.2104 129.827 15.278C129.809 14.364 130.046 13.6327 130.54 13.0843C131.052 12.5359 131.728 12.2616 132.569 12.2616H142.413C144.37 12.2616 145.348 13.1757 145.348 15.0038C145.348 15.8265 145.11 16.4846 144.635 16.9782C144.159 17.4718 143.419 17.7186 142.413 17.7186H136.737C136.061 17.7186 135.722 18.1116 135.722 18.8977V20.9544C136.637 20.7533 137.587 20.5156 138.574 20.2414C139.58 19.9672 140.53 19.8301 141.426 19.8301C142.285 19.8301 142.925 20.022 143.346 20.4059C143.785 20.7716 144.004 21.2743 144.004 21.9141C144.004 22.5723 143.785 23.0933 143.346 23.4772C142.925 23.8428 142.285 24.0348 141.426 24.053C140.53 24.0713 139.58 23.9434 138.574 23.6691C137.569 23.3949 136.609 23.1573 135.695 22.9562V26.5484C135.695 26.8958 135.786 27.1426 135.969 27.2888C136.17 27.4168 136.481 27.362 136.902 27.1243C137.816 26.5941 138.711 26.1737 139.589 25.8629C140.466 25.5338 141.326 25.3693 142.167 25.3693C143.355 25.3693 144.251 25.6801 144.854 26.3016C145.476 26.9232 145.786 27.7367 145.786 28.7422C145.786 29.8208 145.457 30.6526 144.799 31.2376C144.159 31.8226 143.117 32.1151 141.673 32.1151H136.765Z" fill="#98C1F8"/>
<path d="M6.58281 52.7677C5.46309 52.7677 4.4519 52.5392 3.54927 52.0821C2.65806 51.6137 1.95537 50.9224 1.44121 50.0083C0.927051 49.0943 0.669971 47.9688 0.669971 46.632C0.669971 45.2952 0.927051 44.1412 1.44121 43.17C1.9668 42.1988 2.68091 41.4562 3.58355 40.942C4.49761 40.4164 5.53735 40.1536 6.70278 40.1536C8.05103 40.1536 9.08506 40.3421 9.80488 40.7192C10.5247 41.0962 10.8846 41.6561 10.8846 42.3988C10.8846 42.9701 10.7304 43.4442 10.4219 43.8213C10.1134 44.1869 9.69063 44.3697 9.15361 44.3697C8.69658 44.3697 8.25098 44.3126 7.8168 44.1983C7.39404 44.0727 6.89702 44.0098 6.32573 44.0098C5.59448 44.0098 5.01748 44.2212 4.59473 44.6439C4.17197 45.0667 3.9606 45.6208 3.9606 46.3064C3.9606 46.9805 4.17197 47.5461 4.59473 48.0031C5.01748 48.4487 5.59448 48.6715 6.32573 48.6715C6.71421 48.6715 7.06841 48.643 7.38833 48.5858C7.71968 48.5173 8.0396 48.4487 8.3481 48.3802C8.66802 48.3116 9.01079 48.2773 9.37642 48.2773C9.98198 48.2773 10.4276 48.4773 10.7132 48.8772C10.9989 49.2657 11.1417 49.7513 11.1417 50.334C11.1417 50.9167 10.9303 51.3909 10.5076 51.7565C10.0848 52.1107 9.52495 52.3678 8.82798 52.5277C8.14243 52.6877 7.39404 52.7677 6.58281 52.7677ZM13.6801 52.682C13.1545 52.682 12.7203 52.522 12.3776 52.2021C12.0348 51.8822 11.8634 51.4766 11.8634 50.9853V41.9189C11.8634 41.4162 12.0291 40.9991 12.3604 40.6678C12.6918 40.325 13.1259 40.1536 13.663 40.1536C14.2342 40.1536 14.6799 40.325 14.9998 40.6678C15.3197 40.9991 15.4797 41.4047 15.4797 41.8846V45.0553H18.6675V41.9189C18.6675 41.4162 18.8331 40.9991 19.1645 40.6678C19.4958 40.325 19.9414 40.1536 20.5013 40.1536C21.0612 40.1536 21.501 40.325 21.821 40.6678C22.1409 40.9991 22.3008 41.4047 22.3008 41.8846V50.9853C22.3008 51.4766 22.1295 51.8822 21.7867 52.2021C21.4553 52.522 21.0383 52.682 20.5356 52.682C19.9871 52.682 19.5358 52.522 19.1816 52.2021C18.8388 51.8822 18.6675 51.4766 18.6675 50.9853V47.5747H15.4797V50.9853C15.4797 51.4766 15.3083 51.8822 14.9655 52.2021C14.6342 52.522 14.2057 52.682 13.6801 52.682ZM27.3889 52.6991C26.829 52.6991 26.292 52.6477 25.7779 52.5449C25.2751 52.442 24.8295 52.2478 24.441 51.9622C24.064 51.6651 23.7612 51.2423 23.5327 50.6939C23.3156 50.134 23.2071 49.4028 23.2071 48.5001C23.2071 47.6889 23.3156 46.9919 23.5327 46.4092C23.7498 45.8265 24.0069 45.3638 24.3039 45.021C24.6124 44.6782 24.8924 44.4668 25.1437 44.3869L25.058 44.0612H24.7667C24.2411 44.0612 23.824 43.8956 23.5156 43.5642C23.2185 43.2214 23.0642 42.7587 23.0528 42.176C23.0414 41.6047 23.1899 41.1477 23.4984 40.8049C23.8183 40.4621 24.2411 40.2907 24.7667 40.2907H30.9195C32.142 40.2907 32.7533 40.862 32.7533 42.0046C32.7533 42.5187 32.6048 42.9301 32.3077 43.2386C32.0106 43.5471 31.5479 43.7013 30.9195 43.7013H27.3718C26.949 43.7013 26.7376 43.947 26.7376 44.4383V45.7237C27.3089 45.598 27.9031 45.4495 28.52 45.2781C29.1485 45.1067 29.7426 45.021 30.3025 45.021C30.8395 45.021 31.2394 45.141 31.5022 45.3809C31.7764 45.6094 31.9135 45.9236 31.9135 46.3235C31.9135 46.7349 31.7764 47.0605 31.5022 47.3004C31.2394 47.529 30.8395 47.6489 30.3025 47.6604C29.7426 47.6718 29.1485 47.5918 28.52 47.4204C27.8916 47.249 27.2918 47.1005 26.7205 46.9748V49.22C26.7205 49.4371 26.7776 49.5913 26.8919 49.6827C27.0176 49.7627 27.2118 49.7284 27.4746 49.5799C28.0459 49.2485 28.6057 48.9857 29.1542 48.7915C29.7026 48.5858 30.2396 48.483 30.7652 48.483C31.5079 48.483 32.0678 48.6772 32.4448 49.0657C32.8333 49.4542 33.0275 49.9626 33.0275 50.5911C33.0275 51.2652 32.8219 51.7851 32.4105 52.1507C32.0106 52.5163 31.3594 52.6991 30.4567 52.6991H27.3889ZM38.9401 52.7677C37.8204 52.7677 36.8092 52.5392 35.9065 52.0821C35.0153 51.6137 34.3126 50.9224 33.7985 50.0083C33.2843 49.0943 33.0272 47.9688 33.0272 46.632C33.0272 45.2952 33.2843 44.1412 33.7985 43.17C34.3241 42.1988 35.0382 41.4562 35.9408 40.942C36.8549 40.4164 37.8946 40.1536 39.0601 40.1536C40.4083 40.1536 41.4423 40.3421 42.1622 40.7192C42.882 41.0962 43.2419 41.6561 43.2419 42.3988C43.2419 42.9701 43.0876 43.4442 42.7792 43.8213C42.4707 44.1869 42.0479 44.3697 41.5109 44.3697C41.0539 44.3697 40.6083 44.3126 40.1741 44.1983C39.7513 44.0727 39.2543 44.0098 38.683 44.0098C37.9518 44.0098 37.3748 44.2212 36.952 44.6439C36.5292 45.0667 36.3179 45.6208 36.3179 46.3064C36.3179 46.9805 36.5292 47.5461 36.952 48.0031C37.3748 48.4487 37.9518 48.6715 38.683 48.6715C39.0715 48.6715 39.4257 48.643 39.7456 48.5858C40.077 48.5173 40.3969 48.4487 40.7054 48.3802C41.0253 48.3116 41.3681 48.2773 41.7337 48.2773C42.3393 48.2773 42.7849 48.4773 43.0705 48.8772C43.3562 49.2657 43.499 49.7513 43.499 50.334C43.499 50.9167 43.2876 51.3909 42.8648 51.7565C42.4421 52.1107 41.8822 52.3678 41.1853 52.5277C40.4997 52.6877 39.7513 52.7677 38.9401 52.7677ZM48.0255 45.0039L50.5963 41.3705C51.0533 40.7192 51.5503 40.3536 52.0873 40.2736C52.6243 40.1822 53.1099 40.3079 53.5441 40.6506C53.8298 40.8677 54.0183 41.1591 54.1097 41.5247C54.2011 41.8903 54.1725 42.2788 54.024 42.6901C53.8755 43.1015 53.5784 43.4899 53.1328 43.8556L50.2706 46.1693V46.5292C50.6363 46.5292 51.0647 46.5749 51.556 46.6663C52.0473 46.7577 52.4929 46.9634 52.8928 47.2833C53.2128 47.5232 53.487 47.7975 53.7155 48.106C53.9554 48.4145 54.144 48.7972 54.2811 49.2542C54.4182 49.6999 54.4867 50.2654 54.4867 50.951C54.4867 51.5108 54.3325 51.9622 54.024 52.3049C53.7269 52.6363 53.2813 52.802 52.6872 52.802C52.093 52.802 51.636 52.6363 51.3161 52.3049C51.0076 51.9622 50.8533 51.5108 50.8533 50.951C50.8533 50.3226 50.7505 49.8255 50.5448 49.4599C50.3506 49.0829 50.0878 48.8086 49.7565 48.6373C49.4251 48.4659 49.0652 48.3802 48.6767 48.3802H47.8369V51.0709C47.8369 51.5623 47.6655 51.9679 47.3228 52.2878C46.9914 52.6077 46.563 52.7677 46.0374 52.7677C45.5118 52.7677 45.0776 52.6077 44.7348 52.2878C44.4035 51.9679 44.2378 51.5623 44.2378 51.0709V42.0046C44.2378 41.5019 44.4035 41.0791 44.7348 40.7363C45.0662 40.3936 45.5004 40.2222 46.0374 40.2222C46.6087 40.2222 47.0486 40.3936 47.3571 40.7363C47.677 41.0677 47.8369 41.479 47.8369 41.9703V44.9696L48.0255 45.0039ZM58.0039 41.9189C58.0039 41.3933 58.1639 40.9877 58.4838 40.7021C58.8151 40.405 59.2379 40.2564 59.7521 40.2564C60.2891 40.2564 60.7175 40.405 61.0375 40.7021C61.3574 40.9877 61.5173 41.3933 61.5173 41.9189V49.22C61.5173 49.4371 61.5745 49.5913 61.6887 49.6827C61.803 49.7627 61.9915 49.7284 62.2543 49.5799C62.8256 49.2485 63.334 48.9857 63.7796 48.7915C64.2253 48.5858 64.7166 48.483 65.2536 48.483C65.9963 48.483 66.5561 48.6772 66.9332 49.0657C67.3102 49.4542 67.4987 49.9626 67.4987 50.5911C67.4987 51.2652 67.2931 51.7851 66.8817 52.1507C66.4818 52.5163 65.8363 52.6991 64.9451 52.6991H61.4145C60.6604 52.6991 60.032 52.6134 59.5293 52.442C59.0265 52.2592 58.6438 51.9336 58.381 51.4651C58.1296 50.9967 58.0039 50.3168 58.0039 49.4256V41.9189ZM69.8078 52.7677C69.2822 52.7677 68.8537 52.6077 68.5224 52.2878C68.191 51.9679 68.0254 51.5623 68.0254 51.0709V42.0046C68.0254 41.5019 68.1853 41.0791 68.5052 40.7363C68.8366 40.3936 69.2708 40.2222 69.8078 40.2222C70.3791 40.2222 70.8247 40.3936 71.1446 40.7363C71.4759 41.0677 71.6416 41.479 71.6416 41.9703V51.0709C71.6416 51.5623 71.4645 51.9679 71.1103 52.2878C70.7675 52.6077 70.3334 52.7677 69.8078 52.7677ZM77.8525 52.7848C77.2127 52.7848 76.5671 52.722 75.9158 52.5963C75.276 52.4592 74.6819 52.2649 74.1334 52.0136C73.5964 51.7508 73.1622 51.4366 72.8309 51.0709C72.4995 50.6939 72.3339 50.2597 72.3339 49.7684C72.3339 49.14 72.5338 48.6373 72.9337 48.2602C73.3336 47.8832 73.8021 47.7061 74.3391 47.7289C74.7618 47.7403 75.1846 47.8317 75.6073 48.0031C76.0301 48.1631 76.4586 48.323 76.8927 48.483C77.3383 48.643 77.784 48.7229 78.2296 48.7229C78.6752 48.7229 78.9837 48.6658 79.155 48.5516C79.3264 48.4373 79.4121 48.2831 79.4121 48.0888C79.4121 47.8603 79.2922 47.6718 79.0522 47.5232C78.8123 47.3747 78.5095 47.2604 78.1439 47.1805L77.3041 46.9748C76.4357 46.7691 75.6588 46.5406 74.9732 46.2893C74.2877 46.0265 73.7449 45.6837 73.345 45.2609C72.9566 44.8268 72.7623 44.2498 72.7623 43.5299C72.7623 42.7416 72.9794 42.1017 73.4136 41.6104C73.8478 41.1077 74.4362 40.742 75.1789 40.5135C75.9216 40.285 76.7499 40.1708 77.664 40.1708C78.6009 40.1708 79.4236 40.2679 80.132 40.4621C80.8404 40.6563 81.3888 40.9363 81.7773 41.3019C82.1772 41.6675 82.3771 42.1131 82.3771 42.6387C82.3771 43.1986 82.2229 43.6385 81.9144 43.9584C81.6173 44.2669 81.2174 44.4211 80.7147 44.4211C80.3833 44.4211 80.0348 44.364 79.6692 44.2498C79.315 44.1355 78.938 44.027 78.5381 43.9241C78.1496 43.8099 77.7325 43.7527 77.2869 43.7527C76.887 43.7527 76.5842 43.8156 76.3786 43.9413C76.1729 44.0555 76.0701 44.2098 76.0701 44.404C76.0701 44.6439 76.2072 44.821 76.4814 44.9353C76.7556 45.0496 77.207 45.1867 77.8354 45.3466L78.7951 45.5694C79.5835 45.7637 80.2748 45.9979 80.8689 46.2721C81.4631 46.5463 81.9258 46.9062 82.2571 47.3519C82.5885 47.7975 82.7542 48.3802 82.7542 49.1C82.7542 49.9684 82.5485 50.6768 82.1372 51.2252C81.7258 51.7622 81.1546 52.1564 80.4233 52.4078C79.6921 52.6591 78.8351 52.7848 77.8525 52.7848ZM84.8072 44.0612C84.2359 44.0612 83.7675 43.8956 83.4018 43.5642C83.0476 43.2329 82.8705 42.7758 82.8705 42.1931C82.8705 41.6218 83.0305 41.1648 83.3504 40.822C83.6818 40.4678 84.1674 40.2907 84.8072 40.2907H92.194C92.8338 40.2907 93.3137 40.4678 93.6336 40.822C93.965 41.1648 94.1306 41.6218 94.1306 42.1931C94.1306 42.7758 93.9478 43.2329 93.5822 43.5642C93.228 43.8956 92.7653 44.0612 92.194 44.0612C91.8055 44.0612 91.4913 44.0212 91.2513 43.9413C91.0228 43.8499 90.8343 43.747 90.6858 43.6328C90.5372 43.5071 90.3944 43.4042 90.2573 43.3243C90.1202 43.2329 89.9488 43.1872 89.7431 43.1872L89.5889 43.4957C89.6346 43.5985 89.7146 43.747 89.8288 43.9413C89.9431 44.1241 90.0516 44.3926 90.1545 44.7468C90.2573 45.0896 90.3087 45.558 90.3087 46.1521V51.1052C90.3087 51.5737 90.1316 51.9622 89.7774 52.2707C89.4346 52.5792 89.0119 52.7334 88.5091 52.7334C87.995 52.7334 87.5608 52.5792 87.2066 52.2707C86.8638 51.9622 86.6925 51.5737 86.6925 51.1052V46.1521C86.6925 45.558 86.7439 45.0896 86.8467 44.7468C86.9495 44.3926 87.0581 44.1241 87.1723 43.9413C87.298 43.747 87.3837 43.5985 87.4294 43.4957L87.258 43.1872C87.0524 43.1872 86.881 43.2329 86.7439 43.3243C86.6068 43.4042 86.4639 43.5071 86.3154 43.6328C86.1669 43.747 85.9783 43.8499 85.7498 43.9413C85.5213 44.0212 85.2071 44.0612 84.8072 44.0612Z" fill="#98C1F8"/>
</svg>
