<svg width="30" height="30" viewBox="0 0 30 30" fill="none" xmlns="http://www.w3.org/2000/svg">
<path d="M9.7125 20.2907L4.6875 25.3157M18.72 4.16943L25.8325 11.2832C26.1273 11.5778 26.3437 11.9415 26.4621 12.3412C26.5805 12.7408 26.5971 13.1637 26.5104 13.5714C26.4237 13.9791 26.2365 14.3586 25.9657 14.6755C25.6949 14.9923 25.3492 15.2365 24.96 15.3857L20.7437 16.9994C20.0116 17.2798 19.3557 17.7284 18.8289 18.3091C18.3021 18.8897 17.9193 19.5861 17.7112 20.3419L16.85 23.4669C16.7629 23.7832 16.5943 24.071 16.3611 24.3018C16.1279 24.5325 15.8382 24.698 15.5211 24.7817C15.2039 24.8655 14.8703 24.8646 14.5536 24.7791C14.2369 24.6935 13.9482 24.5264 13.7162 24.2944L5.71 16.2869C5.47799 16.055 5.31088 15.7663 5.22537 15.4496C5.13986 15.1329 5.13893 14.7993 5.22268 14.4821C5.30644 14.1649 5.47194 13.8753 5.70266 13.6421C5.93338 13.4089 6.22124 13.2403 6.5375 13.1532L9.6625 12.2932C10.4183 12.0848 11.1145 11.7017 11.6949 11.1747C12.2753 10.6477 12.7236 9.99164 13.0037 9.25943L14.6175 5.04442C14.7664 4.65505 15.0104 4.30909 15.3271 4.03804C15.6438 3.76699 16.0233 3.57945 16.4311 3.49249C16.8388 3.40553 17.2618 3.42191 17.6615 3.54014C18.0613 3.65837 18.4252 3.87469 18.72 4.16943Z" stroke="white" stroke-width="1.5" stroke-linecap="round" stroke-linejoin="round"/>
</svg>
