<svg width="101" height="100" viewBox="0 0 101 100" fill="none" xmlns="http://www.w3.org/2000/svg">
<path d="M44.5333 12.3965C42.9053 13.7281 41.823 15.6112 41.4917 17.6882C41.3553 18.3289 41.0698 18.9284 40.6583 19.4382C40.2644 19.9677 39.7503 20.3962 39.1583 20.6882L35.8667 22.2715C33.2278 23.5682 30.8868 25.3985 28.9917 27.6465C23.1583 34.6048 23.1583 37.7298 23.1583 49.6048C23.1583 54.9798 17.45 59.8548 15.95 64.6881C15.0333 67.5631 14.5333 74.0631 22.1167 74.0631H78.7C79.8082 74.1113 80.911 73.8822 81.9083 73.3965C82.9019 72.9017 83.7599 72.1723 84.4083 71.2715C85.028 70.3656 85.4144 69.3208 85.5333 68.2298C85.6275 67.1182 85.4413 66.0008 84.9917 64.9798C83.4917 60.4382 77.5333 55.0215 77.5333 49.6465V40.7715" stroke="#B0B0B0" stroke-width="5" stroke-linecap="round" stroke-linejoin="round"/>
<path d="M63.95 74.0625C63.9625 75.8417 63.6375 77.6083 62.9917 79.2708C62.2931 80.9165 61.2893 82.4151 60.0333 83.6875C58.7631 84.9616 57.2481 85.9654 55.5796 86.6385C53.9112 87.3116 52.1238 87.6401 50.325 87.6042C48.5226 87.6154 46.7366 87.261 45.075 86.5625C41.7435 85.1681 39.0944 82.519 37.7 79.1875C37.0464 77.5589 36.7207 75.8172 36.7417 74.0625M42.7833 37.1875H60.45C60.6049 37.1863 60.7568 37.2306 60.8868 37.315C61.0168 37.3993 61.1192 37.5199 61.1813 37.6618C61.2434 37.8038 61.2625 37.9608 61.2362 38.1135C61.2099 38.2662 61.1394 38.4078 61.0333 38.5208L44.1167 55.4375C44.0377 55.5219 43.9781 55.6226 43.9422 55.7325C43.9063 55.8424 43.8949 55.9588 43.9088 56.0736C43.9227 56.1884 43.9616 56.2987 44.0227 56.3968C44.0838 56.495 44.1656 56.5785 44.2625 56.6417C44.3939 56.7231 44.5454 56.7664 44.7 56.7667H62.3667M59.2417 13.1875H70.45C70.5107 13.1888 70.5703 13.2034 70.6247 13.2301C70.6792 13.2569 70.7271 13.2952 70.7652 13.3425C70.8033 13.3897 70.8307 13.4446 70.8453 13.5035C70.8599 13.5624 70.8615 13.6238 70.85 13.6833C70.8346 13.7617 70.797 13.834 70.7417 13.8917L59.95 24.6833C59.9071 24.7268 59.8742 24.7793 59.8538 24.8369C59.8334 24.8945 59.8259 24.9559 59.8318 25.0167C59.8378 25.0776 59.8571 25.1364 59.8883 25.1889C59.9195 25.2415 59.9619 25.2865 60.0125 25.3208C60.0798 25.3679 60.1596 25.394 60.2417 25.3958H71.325" stroke="#B0B0B0" stroke-width="5" stroke-linecap="round" stroke-linejoin="round"/>
</svg>
